<?xml version="1.0" encoding="utf-8" ?>
<svg xmlns="http://www.w3.org/2000/svg" xmlns:xlink="http://www.w3.org/1999/xlink" width="128" height="128">
	<defs>
		<clipPath id="clip_0">
			<rect x="-2080" y="-14690" width="2880" height="20856" clip-rule="evenodd"/>
		</clipPath>
		<linearGradient id="gradient_0" gradientUnits="userSpaceOnUse" x1="54.09623" y1="54.393318" x2="7.5352163" y2="8.5672684">
			<stop offset="0" stop-color="rgb(255,42,102)"/>
			<stop offset="1" stop-color="rgb(19,234,224)"/>
		</linearGradient>
	</defs>
	<g clip-path="url(#clip_0)">
		<path fill="url(#gradient_0)" stroke="none" transform="matrix(2 0 0 2 1.52393 0)" d="M23.4667 0L39.0095 0L62.1714 32L38.8571 64L23.3143 64L0 32L23.4667 0ZM60.0381 32L38.0952 1.67619L24.2286 1.67619L1.98095 32L24.2286 62.3238L38.0952 62.3238L60.0381 32Z" fill-rule="evenodd"/>
	</g>
	<defs>
		<clipPath id="clip_1">
			<rect x="-2080" y="-14690" width="2880" height="20856" clip-rule="evenodd"/>
		</clipPath>
		<linearGradient id="gradient_1" gradientUnits="userSpaceOnUse" x1="55.687294" y1="52.968731" x2="7.7568402" y2="8.3428879">
			<stop offset="0" stop-color="rgb(255,42,102)"/>
			<stop offset="1" stop-color="rgb(19,234,224)"/>
		</linearGradient>
	</defs>
	<g clip-path="url(#clip_1)">
		<path fill="url(#gradient_1)" stroke="none" transform="matrix(2 0 0 2 0 1.82861)" d="M0 23.3143L32 0L64 23.3143L64 39.0095L32 62.3238L0 39.0095L0 23.3143ZM62.3238 24.0762L32 1.98095L1.67619 24.2286L1.67619 38.0952L32 60.1905L62.3238 37.9429L62.3238 24.0762Z" fill-rule="evenodd"/>
	</g>
	<defs>
		<clipPath id="clip_2">
			<rect x="-2080" y="-14690" width="2880" height="20856" clip-rule="evenodd"/>
		</clipPath>
		<linearGradient id="gradient_2" gradientUnits="userSpaceOnUse" x1="39.909225" y1="39.758926" x2="5.5590687" y2="6.2622652">
			<stop offset="0" stop-color="rgb(255,42,102)"/>
			<stop offset="1" stop-color="rgb(19,234,224)"/>
		</linearGradient>
	</defs>
	<g clip-path="url(#clip_2)">
		<path fill="url(#gradient_2)" stroke="none" transform="matrix(2 0 0 2 17.981 17.0669)" d="M17.3714 0L28.6476 0L45.8667 23.3143L28.4952 46.781L17.219 46.781L0 23.3143L17.3714 0ZM43.581 23.4667L27.7333 1.67619L27.7333 1.52381L17.981 1.52381L2.13333 23.3143L18.1333 45.1048L27.7333 45.1048L43.581 23.4667Z" fill-rule="evenodd"/>
	</g>

</svg>